:FULLY-SPECIFIED
:DEGREES
624
root 8.59963 16.6284 -2.97334 2126.14 -84.662 -2110.34
lowerback 0.844704 -1.43259 -2.86395
upperback 1.58935 -1.92613 0.463687
thorax 1.26693 -1.00488 2.07242
lowerneck -19.5497 8.95806 1.04047
upperneck 14.4226 12.1018 -1.19483
head 7.76482 5.69337 0.921303
rclavicle 4.24902e-015 5.56597e-015
rhumerus -28.8741 -14.9712 -78.8571
rradius 21.5083
rwrist 28.6147
rhand -21.1176 -11.6209
rfingers 7.12502
rthumb 5.26078 -41.5356
lclavicle 4.24902e-015 5.56597e-015
lhumerus -20.5904 -17.3474 85.6176
lradius 44.1571
lwrist 12.8541
lhand -29.5565 3.14103
lfingers 7.12502
lthumb -2.88916 33.1012
rfemur -46.0785 2.28484 11.6624
rtibia 20.7739
rfoot -5.68617 -8.23078
rtoes -14.0539
lfemur -6.37027 -0.661222 -27.2818
ltibia 18.9464
lfoot -15.1696 2.33579
ltoes -15.7427
625
root 8.57883 16.5968 -2.98969 2126.3 -84.3646 -2110.61
lowerback 0.830181 -1.47306 -2.90362
upperback 1.64986 -1.97972 0.476327
thorax 1.3422 -1.03435 2.10575
lowerneck -19.6318 8.88198 0.867075
upperneck 14.4798 12.0498 -1.20174
head 7.78717 5.65578 0.94364
rclavicle -4.58199e-014 1.27222e-014
rhumerus -29.1363 -15.9333 -78.1408
rradius 20.5984
rwrist 29.8345
rhand -21.0245 -11.9771
rfingers 7.12502
rthumb 5.35072 -41.8895
lclavicle -4.58199e-014 1.27222e-014
lhumerus -20.0942 -17.6209 85.2962
lradius 44.7955
lwrist 13.1744
lhand -29.8733 2.72818
lfingers 7.12502
lthumb -3.19512 32.684
rfemur -45.7258 2.75544 11.0826
rtibia 19.7331
rfoot -5.53512 -8.3573
rtoes -13.6432
lfemur -5.00598 -0.6912 -27.2724
ltibia 18.4457
lfoot -14.8815 2.0424
ltoes -16.7093
626
root 8.55511 16.561 -3.01214 2127.86 -84.3319 -2112.23
lowerback 0.732536 -1.47251 -2.69836
upperback 1.688 -1.97654 0.538321
thorax 1.43086 -1.0323 2.05098
lowerneck -19.7388 8.83658 0.698256
upperneck 14.6134 12.0273 -1.13625
head 7.83471 5.63764 0.995698
rclavicle 1.49585e-014 1.03368e-014
rhumerus -29.3819 -17.2147 -77.3534
rradius 19.6262
rwrist 31.5707
rhand -21.3426 -11.8361
rfingers 7.12502
rthumb 5.04352 -41.7561
lclavicle 1.49585e-014 1.03368e-014
lhumerus -19.6059 -17.9061 84.9044
lradius 45.4452
lwrist 13.8955
lhand -30.0483 2.36094
lfingers 7.12502
lthumb -3.36414 32.3141
rfemur -45.5237 3.29094 11.0059
rtibia 19.2761
rfoot -5.19198 -8.27238
rtoes -14.4064
lfemur -3.92861 -0.629329 -26.9233
ltibia 18.286
lfoot -14.5141 1.75163
ltoes -17.8142
627
root 8.52205 16.5191 -3.03385 2128.7 -84.0689 -2113.19
lowerback 0.614187 -1.51189 -2.63526
upperback 1.74007 -2.02567 0.53495
thorax 1.55107 -1.05828 2.00732
lowerneck -19.8823 8.80814 0.681051
upperneck 14.8279 12.0104 -1.18128
head 7.93276 5.616 0.9954
rclavicle 3.67752e-015 -3.97569e-015
rhumerus -29.6654 -18.6825 -76.4762
rradius 18.6447
rwrist 33.5177
rhand -21.3337 -11.8258
rfingers 7.12502
rthumb 5.05215 -41.7456
lclavicle 3.67752e-015 -3.97569e-015
lhumerus -19.1857 -18.0011 84.5512
lradius 46.0962
lwrist 14.6927
lhand -30.249 1.85794
lfingers 7.12502
lthumb -3.55793 31.808
rfemur -45.3745 3.36649 11.0291
rtibia 19.6644
rfoot -4.67299 -7.60923
rtoes -15.9697
lfemur -2.87717 -0.421275 -26.7255
ltibia 18.3753
lfoot -13.9829 1.23535
ltoes -19.2648
628
root 8.49239 16.4795 -3.05911 2130.01 -83.9344 -2114.56
lowerback 0.531624 -1.51507 -2.45704
upperback 1.7236 -2.02844 0.566722
thorax 1.57527 -1.05734 1.93798
lowerneck -19.933 8.77221 0.619917
upperneck 15.0431 11.9941 -1.21385
head 8.01217 5.59454 1.00122
rclavicle 3.47873e-015 1.11319e-014
rhumerus -30.0363 -20.1188 -75.5265
rradius 17.6835
rwrist 35.5734
rhand -21.4993 -11.5129
rfingers 7.12502
rthumb 4.89222 -41.4364
lclavicle 3.47873e-015 1.11319e-014
lhumerus -18.9073 -18.0742 84.2524
lradius 46.671
lwrist 14.8862
lhand -30.3893 1.41158
lfingers 7.12502
lthumb -3.69343 31.3593
rfemur -45.5029 3.23684 11.4303
rtibia 20.8995
rfoot -2.05547 -6.62601
rtoes -16.5433
lfemur -2.17397 -0.402544 -26.337
ltibia 18.9361
lfoot -13.5263 0.450688
ltoes -18.7475
629
root 8.46523 16.4387 -3.08111 2129.89 -83.7711 -2114.51
lowerback 0.577267 -1.49385 -2.34184
upperback 1.68011 -2.00122 0.537216
thorax 1.4983 -1.04033 1.84567
lowerneck -19.9529 8.74769 0.566072
upperneck 15.1476 11.9982 -1.30159
head 8.05363 5.58053 0.985797
rclavicle 1.5704e-014 3.18055e-015
rhumerus -30.4066 -21.7858 -74.5082
rradius 16.7522
rwrist 37.7606
rhand -20.7965 -11.9925
rfingers 7.12502
rthumb 5.57085 -41.8992
lclavicle 1.5704e-014 3.18055e-015
lhumerus -18.7093 -17.9602 84.0342
lradius 47.227
lwrist 15.0525
lhand -30.4944 1.065
lfingers 7.12502
lthumb -3.79492 31.011
rfemur -45.64 2.51826 12.1416
rtibia 22.9222
rfoot 1.67559 -4.61557
rtoes -12.3446
lfemur -1.71393 -0.496551 -26.1304
ltibia 19.8598
lfoot -12.9179 -0.174243
ltoes -19.2507
630
root 8.4419 16.4182 -3.10314 2132.61 -83.8349 -2117.31
lowerback 0.710438 -1.46588 -1.79146
upperback 1.61848 -1.96836 0.59889
thorax 1.3415 -1.01475 1.6061
lowerneck -19.9195 8.77001 0.589867
upperneck 15.1857 12.0625 -1.49371
head 8.07637 5.59072 0.928565
rclavicle -2.82274e-014 -7.95139e-015
rhumerus -30.8149 -23.3748 -73.5018
rradius 15.9182
rwrist 40.046
rhand -20.0616 -12.4219
rfingers 7.12502
rthumb 6.28038 -42.3088
lclavicle -2.82274e-014 -7.95139e-015
lhumerus -18.671 -17.7579 83.8476
lradius 47.9024
lwrist 15.1804
lhand -30.5768 0.724185
lfingers 7.12502
lthumb -3.87446 30.6687
rfemur -45.8825 2.02039 13.1857
rtibia 25.3447
rfoot 2.28618 -2.58775
rtoes -10.5749
lfemur -1.58632 -0.550871 -25.4707
ltibia 21.3541
lfoot -12.0653 -0.607251
ltoes -20.3572
631
root 8.42806 16.4084 -3.12172 2134.85 -84.1924 -2119.57
lowerback 0.910786 -1.34842 -1.14601
upperback 1.56768 -1.81554 0.705396
thorax 1.15345 -0.92956 1.36115
lowerneck -20.0469 8.80891 0.569695
upperneck 15.236 12.1649 -1.697
head 8.12886 5.61213 0.886836
rclavicle -2.5842e-015 6.75868e-015
rhumerus -31.078 -24.9164 -72.5035
rradius 15.1157
rwrist 42.2032
rhand -19.9042 -12.4156
rfingers 7.12502
rthumb 6.43231 -42.2979
lclavicle -2.5842e-015 6.75868e-015
lhumerus -18.6494 -17.2833 83.7203
lradius 48.582
lwrist 15.2325
lhand -30.5059 0.527747
lfingers 7.12502
lthumb -3.80603 30.4735
rfemur -46.7088 2.13412 13.9932
rtibia 28.0386
rfoot 2.09276 -1.88729
rtoes -5.09864
lfemur -1.86265 -0.591356 -24.7795
ltibia 23.2821
lfoot -11.2403 -0.947254
ltoes -20.9544
632
root 8.4162 16.3821 -3.14184 2136.71 -84.5939 -2121.59
lowerback 1.25964 -1.20036 -0.539294
upperback 1.56319 -1.61998 0.802307
thorax 0.932609 -0.825227 1.12957
lowerneck -20.1696 8.81931 0.534405
upperneck 15.2521 12.2298 -1.89224
head 8.16748 5.61667 0.843816
rclavicle 4.96962e-015 1.59028e-015
rhumerus -31.3988 -26.6225 -71.4064
rradius 14.3818
rwrist 44.6362
rhand -19.6396 -12.5431
rfingers 7.12502
rthumb 6.68776 -42.4175
lclavicle 4.96962e-015 1.59028e-015
lhumerus -18.7843 -16.6597 83.6912
lradius 49.2243
lwrist 14.9422
lhand -30.6506 0.230192
lfingers 7.12502
lthumb -3.94573 30.1734
rfemur -47.3176 2.5002 14.619
rtibia 30.6779
rfoot 1.8133 -2.76526
rtoes -9.39257
lfemur -2.26574 -0.358004 -24.0956
ltibia 25.6718
lfoot -10.1826 -1.25005
ltoes -22.2132
